<?xml version="1.0" encoding="UTF-8" standalone="no"?>
<!DOCTYPE svg PUBLIC "-//W3C//DTD SVG 1.1//EN"
 "http://www.w3.org/Graphics/SVG/1.1/DTD/svg11.dtd">
<!-- Generated by graphviz version 14.1.5 (20260411.2331)
 -->
<!-- Title: dependency&#45;cruiser output Pages: 1 -->
<svg width="110pt" height="110pt"
 viewBox="0.00 0.00 110.00 110.00" xmlns="http://www.w3.org/2000/svg" xmlns:xlink="http://www.w3.org/1999/xlink">
<g id="graph0" class="graph" transform="scale(1 1) rotate(0) translate(4 106)">
<title>dependency&#45;cruiser output</title>
<polygon fill="white" stroke="none" points="-4,4 -4,-106 106,-106 106,4 -4,4"/>
<g id="clust1" class="cluster">
<title>cluster_extension</title>
<path fill="#ffffff" stroke="black" stroke-width="2" d="M20,-8C20,-8 82,-8 82,-8 88,-8 94,-14 94,-20 94,-20 94,-82 94,-82 94,-88 88,-94 82,-94 82,-94 20,-94 20,-94 14,-94 8,-88 8,-82 8,-82 8,-20 8,-20 8,-14 14,-8 20,-8"/>
<text xml:space="preserve" text-anchor="middle" x="51" y="-81.45" font-family="Helvetica,sans-Serif" font-weight="bold" font-size="9.00">extension</text>
</g>
<g id="clust2" class="cluster">
<title>cluster_extension/src</title>
<path fill="#ffffff" stroke="black" stroke-width="2" d="M28,-16C28,-16 74,-16 74,-16 80,-16 86,-22 86,-28 86,-28 86,-56 86,-56 86,-62 80,-68 74,-68 74,-68 28,-68 28,-68 22,-68 16,-62 16,-56 16,-56 16,-28 16,-28 16,-22 22,-16 28,-16"/>
<text xml:space="preserve" text-anchor="middle" x="51" y="-55.45" font-family="Helvetica,sans-Serif" font-weight="bold" font-size="9.00">src</text>
</g>
<!-- extension/src/index.ts -->
<g id="node1" class="node">
<title>extension/src/index.ts</title>
<g id="a_node1"><a xlink:href="extension/src/index.ts" xlink:title="no&#45;orphans">
<path fill="#ccffcc" stroke="orange" d="M72.08,-41.88C72.08,-41.88 29.92,-41.88 29.92,-41.88 26.96,-41.88 24,-38.92 24,-35.96 24,-35.96 24,-30.04 24,-30.04 24,-27.08 26.96,-24.12 29.92,-24.12 29.92,-24.12 72.08,-24.12 72.08,-24.12 75.04,-24.12 78,-27.08 78,-30.04 78,-30.04 78,-35.96 78,-35.96 78,-38.92 75.04,-41.88 72.08,-41.88"/>
<text xml:space="preserve" text-anchor="start" x="35.25" y="-30.38" font-family="Helvetica,sans-Serif" font-size="9.00" fill="orange">index.ts</text>
</a>
</g>
</g>
</g>
</svg>
